<?xml version="1.0" encoding="iso-8859-1"?>
<!-- Uploaded to: SVG Repo, www.svgrepo.com, Generator: SVG Repo Mixer Tools -->
<svg height="800px" width="800px" version="1.1" id="Layer_1" xmlns="http://www.w3.org/2000/svg" xmlns:xlink="http://www.w3.org/1999/xlink" 
	 viewBox="0 0 511.999 511.999" xml:space="preserve">
<circle style="fill:#FFDC64;" cx="194.207" cy="88.275" r="61.793"/>
<circle style="fill:#FFF082;" cx="194.207" cy="88.275" r="35.31"/>
<path style="fill:#FF6464;" d="M361.929,161.527c-38.351-28.886-91.416-46.769-150.067-46.769C94.854,114.758,0,185.898,0,273.655
	s94.854,158.897,211.862,158.897c46.83,0,90.069-11.432,125.132-30.732c53.569-5.242,115.348-12.605,166.772-43.503
	c5.197-3.123,8.233-8.891,8.233-14.954v-32.312c0-6.687-3.778-12.801-9.76-15.791l-16.501-8.25c-5.32-2.66-8.896-7.837-9.58-13.746
	c-4.237-36.619-33.41-65.58-70.094-69.641"/>
<g>
	<path style="fill:#C84146;" d="M406.069,210.268v-67.26c0-6.054-5.907-10.258-11.66-8.38c-14.812,4.836-38.75,20.223-41.115,69.185
		c-0.218,4.53,2.899,8.562,7.372,9.306l35.125,5.854C401.171,219.873,406.069,215.724,406.069,210.268z"/>
	<path style="fill:#C84146;" d="M423.724,291.31c-4.879,0-8.828-3.953-8.828-8.828v-8.828c0-4.875,3.948-8.828,8.828-8.828
		c4.879,0,8.828,3.953,8.828,8.828v8.828C432.552,287.357,428.604,291.31,423.724,291.31z"/>
</g>
<g>
	<path style="fill:#FF5050;" d="M318.802,485.517H299.13c-9.348,0-17.076-7.286-17.624-16.618l-5.778-98.216
		c-1.126-19.116,14.073-35.235,33.222-35.235h0.03c19.148,0,34.347,16.119,33.223,35.234l-5.778,98.216
		C335.876,478.231,328.149,485.517,318.802,485.517z"/>
	<path style="fill:#FF5050;" d="M98.112,485.517H78.44c-9.348,0-17.076-7.286-17.624-16.618l-5.778-98.216
		c-1.124-19.116,14.074-35.235,33.223-35.235h0.03c19.148,0,34.347,16.119,33.223,35.234l-5.778,98.216
		C115.187,478.231,107.459,485.517,98.112,485.517z"/>
</g>
<path style="fill:#FFDC64;" d="M203.034,262.788v-50.19c15.937,2.477,26.483,11.3,26.483,19.402c0,4.875,3.948,8.828,8.828,8.828
	c4.879,0,8.828-3.953,8.828-8.828c0-19.037-18.795-34.324-44.138-37.247v-9.374c0-4.875-3.948-8.828-8.828-8.828
	s-8.828,3.953-8.828,8.828v9.374c-25.343,2.923-44.138,18.21-44.138,37.247c0,26.991,24.602,37.329,44.138,43.694v50.19
	c-15.937-2.477-26.483-11.3-26.483-19.402c0-4.875-3.948-8.828-8.828-8.828c-4.879,0-8.828,3.953-8.828,8.828
	c0,19.037,18.795,34.324,44.138,37.247v9.374c0,4.875,3.948,8.828,8.828,8.828s8.828-3.953,8.828-8.828v-9.374
	c25.343-2.923,44.138-18.21,44.138-37.247C247.172,279.491,222.57,269.154,203.034,262.788z M158.897,231.999
	c0-8.102,10.546-16.925,26.483-19.402v44.309C165.703,249.624,158.897,242.92,158.897,231.999z M203.034,325.884v-44.309
	c19.677,7.283,26.483,13.986,26.483,24.907C229.517,314.584,218.972,323.407,203.034,325.884z"/>
<g>
	<path style="fill:#C84146;" d="M59.716,450.206l1.1,18.691c0.548,9.332,8.276,16.619,17.624,16.619h19.671
		c9.348,0,17.076-7.287,17.624-16.619l1.099-18.691H59.716z"/>
	<path style="fill:#C84146;" d="M280.406,450.206l1.1,18.691c0.548,9.332,8.276,16.619,17.624,16.619h19.671
		c9.348,0,17.076-7.287,17.624-16.619l1.099-18.691H280.406z"/>
</g>
</svg>